<svg width="44" height="32" viewBox="0 0 44 32" fill="none" xmlns="http://www.w3.org/2000/svg">
<g filter="url(#filter0_d_1763_41)">
<path d="M5.10021 1.94725C9.89873 5.66669 18.3187 12.2103 20.7934 14.2506C21.1256 14.526 21.4819 14.666 21.8518 14.666C22.221 14.666 22.5767 14.5273 22.9082 14.2533C25.385 12.2109 33.8049 5.66669 38.6035 1.94725C38.9023 1.71612 38.9478 1.30987 38.706 1.02731C38.1468 0.374375 37.3132 0 36.4197 0H7.28396C6.39056 0 5.55684 0.374375 4.99777 1.02738C4.7559 1.30988 4.80145 1.71612 5.10021 1.94725Z" fill="#CD06FF"/>
<path d="M38.9108 3.96279C38.6526 3.85279 38.3489 3.89116 38.1341 4.05916C32.8126 8.18804 26.0209 13.4804 23.8841 15.2427C22.6847 16.2336 21.0202 16.2336 19.8181 15.2414C17.5405 13.3632 9.91363 7.42891 5.56962 4.0591C5.35335 3.8911 5.04893 3.85404 4.79285 3.96273C4.53541 4.07216 4.37036 4.30785 4.37036 4.5676V21.3332C4.37036 22.804 5.67703 23.9999 7.28396 23.9999H36.4198C38.0267 23.9999 39.3333 22.804 39.3333 21.3332V4.5676C39.3333 4.30785 39.1683 4.07154 38.9108 3.96279Z" fill="#CD06FF"/>
</g>
<defs>
<filter id="filter0_d_1763_41" x="0.370361" y="0" width="42.963" height="32" filterUnits="userSpaceOnUse" color-interpolation-filters="sRGB">
<feFlood flood-opacity="0" result="BackgroundImageFix"/>
<feColorMatrix in="SourceAlpha" type="matrix" values="0 0 0 0 0 0 0 0 0 0 0 0 0 0 0 0 0 0 127 0" result="hardAlpha"/>
<feOffset dy="4"/>
<feGaussianBlur stdDeviation="2"/>
<feComposite in2="hardAlpha" operator="out"/>
<feColorMatrix type="matrix" values="0 0 0 0 0 0 0 0 0 0 0 0 0 0 0 0 0 0 0.25 0"/>
<feBlend mode="normal" in2="BackgroundImageFix" result="effect1_dropShadow_1763_41"/>
<feBlend mode="normal" in="SourceGraphic" in2="effect1_dropShadow_1763_41" result="shape"/>
</filter>
</defs>
</svg>
